<?xml version="1.0" encoding="utf-8"?>
<!-- Generator: Adobe Illustrator 27.8.1, SVG Export Plug-In . SVG Version: 6.00 Build 0)  -->
<svg version="1.1" id="New_Layer" xmlns="http://www.w3.org/2000/svg" xmlns:xlink="http://www.w3.org/1999/xlink" x="0px" y="0px"
	 viewBox="0 0 1143.3 480" style="enable-background:new 0 0 1143.3 750.6;" xml:space="preserve">
<style type="text/css">
	.st0{fill-rule:evenodd;clip-rule:evenodd;fill:#080405;}
	.st1{fill:#E41D19;}
</style>
<g>
	<path class="st0" d="M66.6,0.9C34.8,4.9,9.2,28.6,1.7,61C0.1,67.9,0,75.8,0,242.7v174.5l2,7.9c7.1,28,26,47.8,54.3,56.5l8,2.5
		l496.1,0.3c356.8,0.2,498.2,0,503.7-0.7c30.1-3.9,54.5-24.9,63.9-54.7l2.5-8.1V64.5l-2.1-7c-4.1-14.3-9.1-23.1-19.1-33.5
		c-9.3-9.7-18.8-15.7-31.3-20.1c-12.2-4.2,11.1-4-512.3-3.9C294.4,0,69.7,0.4,66.6,0.9z M1064.9,17.4c24,4.3,42.9,22.4,48.3,46.4
		c1.3,5.9,1.4,22.7,1.4,178.6c0,191.9,0.4,178.5-6.5,192.4c-3,6.1-5.3,9.2-11.5,15.4c-8.9,8.9-16.7,13.3-28.5,16.3
		c-7.1,1.8-10.8,1.8-502.1,1.8c-550.5,0-501.3,0.6-515.4-6.2c-16.4-8-27.3-21.2-32.7-39.4c-1.5-5.1-1.6-15.5-1.8-177.7
		c-0.2-143.5,0-173.4,1-178.6c5-25,23-43.3,48-48.8C73.2,15.7,1054.8,15.6,1064.9,17.4L1064.9,17.4z"/>
	<path class="st0" d="M69.2,35.2c-8,1.3-17.1,6.3-23,12.7c-5.4,5.9-7.4,9.2-10.1,17.1c-1.6,4.8-1.7,10.8-1.7,177.7v172.7l2.1,5.3
		c3,8,5.8,12.2,11.4,17.5s13.9,9.6,21.2,11c3.2,0.6,65.8,0.9,183.8,0.9h179V417l-7.9-0.5c-31.5-2.1-55.7-26.7-56.9-57.6
		c-0.4-10.7,1.3-18.7,6-28.5c7-14.6,18.2-24.6,34.5-30.9l6.6-2.5l113.4-0.3c110.1-0.2,113.7-0.2,120.5,1.5
		c18.4,4.6,32,15.9,40.2,33.1c7.8,16.3,7.6,34.9-0.6,51.8c-3.1,6.3-5.2,9.2-11.6,15.6c-12.1,12-23.2,16.8-41,17.8l-9.8,0.5v33.2
		h216.2c154.2,0,217.4-0.3,220.8-1c16.3-3.4,29.9-16.8,33.3-32.7c0.6-3.3,0.9-56.1,0.7-177l-0.3-172.3l-2.1-5.2
		c-4.8-11.8-13.9-20.7-25.8-25l-6.5-2.3l-493.8-0.1C283.7,34.5,72.1,34.8,69.2,35.2L69.2,35.2z M208.9,192.9
		c4.5,2.3,9.5,7.2,11.8,11.8c1.6,3.3,1.8,5.9,2.1,29.1l0.3,25.5l25.1,0.3l25,0.3l5.3,2.7c6.4,3.3,10.7,8.5,12.8,15.5
		c1.2,4.1,1.4,8.5,1.1,23.2c-0.3,17-0.5,18.5-2.4,22.6c-1.2,2.4-3.9,5.9-6.1,7.8c-6.8,6-9.1,6.4-36.5,6.4H223l-0.3,26l-0.3,26
		l-2.4,4.1c-3.2,5.4-6.6,8.5-12,11c-4.1,1.8-6.1,2.1-21.4,2.4c-10.4,0.2-18.8,0-21.7-0.6c-5.8-1.3-12-5.3-15.4-10
		c-4.4-6.1-5.2-11.6-5.2-36.4v-22.4h-24c-27,0-30.6-0.6-37-6.9c-6.9-6.7-7.3-8.4-7.6-30.5c-0.3-16.3-0.1-20.4,1.2-24.1
		c2-5.9,7.4-11.9,13.3-14.6c4.6-2.1,5.7-2.2,29.4-2.4l24.5-0.3l0.4-24.6c0.3-23.6,0.4-24.8,2.4-29.4c1.3-2.8,3.8-6.2,6.1-8.3
		c6.7-5.9,8.9-6.2,31.9-6.1C203.1,191.1,205.6,191.3,208.9,192.9L208.9,192.9z M823.7,287c17.4,3.6,32,17.4,37.4,35
		c2.1,6.6,2,20.4-0.1,27c-7,21.4-26.4,36.2-47.6,36.2c-11.5,0-24.9-5.3-33.4-13.2c-21.2-19.5-21.8-51.3-1.5-71.4
		c7.4-7.3,13.1-10.7,22.4-13.1C809,285.4,815.5,285.3,823.7,287L823.7,287z M986.4,288.6c8.1,2.9,14.1,7,20.1,13.4
		c18.2,19.6,17.5,49.3-1.7,68.3c-12.4,12.2-28.2,17.1-44.8,13.6c-16.3-3.4-30.3-15.5-36.2-31c-10.7-28.2,6.1-59.1,35.7-65.9
		C967.3,285.1,978.9,285.8,986.4,288.6L986.4,288.6z"/>
	<path class="st0" d="M162.1,202.6c-6.8,4.2-6.5,3.2-7.1,36.9l-0.4,30.3l-30.3,0.5c-34,0.5-33,0.3-37.1,7.4
		c-1.8,3.3-1.9,4.4-1.6,22.2l0.3,18.9l2.4,3.2c4.6,6.1,5.3,6.1,37.7,6.1h29v29.6c0,28,0.1,29.8,1.8,32.6c3.7,6.1,5.4,6.5,27,6.5
		c18.1,0,19.5-0.1,22.4-1.9c1.6-1.1,3.8-3.4,4.8-5.4c1.7-3.3,1.8-5.4,1.8-32.5v-28.9h28.7c27.1,0,28.9-0.1,32.5-1.9
		c2.4-1.1,4.8-3.3,6-5.1c1.9-3.2,2.1-4.5,2.4-20.4c0.4-19.1-0.3-22.5-5.3-27.3l-2.7-2.6l-30.7-0.3l-30.7-0.3l-0.3-30.2
		c-0.3-28.9-0.4-30.3-2.2-32.6c-4.5-6.1-5-6.2-26-6.5C166,200.6,165.4,200.6,162.1,202.6L162.1,202.6z"/>
	<path class="st0" d="M420.5,343.9c-8,3.5-11,14.2-5.7,20.9c3.9,4.9,4.3,5,39.3,5c30.5,0,32.6-0.1,35.3-1.8c3.8-2.3,6-6.7,6.1-11.9
		c0-3.4-0.5-5-2.8-7.7c-1.5-1.9-4.1-3.9-5.8-4.5C482.3,342.2,424.2,342.2,420.5,343.9L420.5,343.9z"/>
	<path class="st0" d="M575.2,343.2c-5.7,1.5-9.5,6.9-9.5,13.6c0,4.9,2,8.6,6,11.2c2.4,1.6,4.8,1.7,35.3,1.7c32.5,0,32.7,0,35.7-2.1
		c4.2-2.8,6.4-7.3,6-12.5s-2.7-8.4-7.5-10.8c-3.4-1.7-5.2-1.8-33.9-1.7C590.5,342.8,576.2,343.1,575.2,343.2z"/>
</g>
<circle class="st1" cx="970.1" cy="213.2" r="49.4"/>
<circle class="st1" cx="813.2" cy="213.2" r="49.4"/>
</svg>
