<?xml version="1.0" encoding="UTF-8"?>
<svg id="New_Layer" data-name="New Layer" xmlns="http://www.w3.org/2000/svg" viewBox="0 0 1143.31 750.56">
  <defs>
    <style>
      .cls-1 {
        fill: #080405;
        fill-rule: evenodd;
      }

      .cls-1, .cls-2, .cls-3 {
        stroke-width: 0px;
      }

      .cls-2 {
        fill: #1d1d1b;
      }

      .cls-3 {
        fill: #e41d19;
      }
    </style>
  </defs>
  <g>
    <path class="cls-1" d="m66.56.85C34.82,4.92,9.22,28.61,1.72,60.99c-1.63,6.87-1.72,14.83-1.72,181.69v174.54l1.99,7.87c7.14,28.04,26.05,47.75,54.26,56.52l7.96,2.53,496.05.27c356.78.18,498.22,0,503.74-.72,30.12-3.89,54.53-24.87,63.94-54.71l2.53-8.14V64.51l-2.08-7.05c-4.07-14.29-9.13-23.06-19.08-33.46-9.32-9.68-18.81-15.74-31.29-20.08C1065.81-.24,1089.14-.06,565.69.03,294.37.03,69.73.39,66.56.85Zm998.34,16.55c23.97,4.34,42.87,22.43,48.29,46.39,1.27,5.88,1.45,22.7,1.45,178.61,0,191.91.45,178.52-6.51,192.45-2.98,6.15-5.34,9.22-11.49,15.37-8.86,8.86-16.73,13.29-28.49,16.28-7.14,1.81-10.76,1.81-502.11,1.81-550.49,0-501.3.63-515.4-6.24-16.37-7.96-27.31-21.16-32.74-39.43-1.54-5.15-1.63-15.46-1.81-177.71-.18-143.52,0-173.37.99-178.61,4.97-25.05,22.97-43.32,48.02-48.84,8.14-1.81,989.75-1.9,999.79-.09Z"/>
    <path class="cls-1" d="m69.18,35.21c-8.05,1.27-17.09,6.33-22.97,12.66-5.43,5.88-7.42,9.22-10.13,17.09-1.63,4.79-1.72,10.76-1.72,177.71v172.74l2.08,5.34c2.98,7.96,5.79,12.21,11.4,17.54s13.93,9.59,21.25,11.03c3.17.63,65.84.9,183.77.9h178.98v-33.19l-7.87-.54c-31.47-2.08-55.71-26.68-56.89-57.61-.36-10.67,1.27-18.72,5.97-28.49,7.05-14.65,18.18-24.6,34.55-30.93l6.6-2.53,113.41-.27c110.06-.18,113.68-.18,120.46,1.54,18.36,4.61,32.01,15.92,40.24,33.1,7.78,16.28,7.6,34.91-.63,51.82-3.07,6.33-5.25,9.22-11.58,15.56-12.12,12.03-23.24,16.82-40.97,17.82l-9.77.54v33.19h216.15c154.2,0,217.41-.27,220.85-.99,16.28-3.44,29.93-16.82,33.28-32.74.63-3.26.9-56.07.72-176.99l-.27-172.28-2.08-5.15c-4.79-11.85-13.93-20.71-25.77-25.05l-6.51-2.35-493.79-.09c-284.25-.09-495.87.18-498.76.63Zm139.73,157.72c4.52,2.26,9.5,7.24,11.76,11.76,1.63,3.26,1.81,5.88,2.08,29.12l.27,25.5,25.14.27,25.05.27,5.34,2.71c6.42,3.26,10.67,8.5,12.75,15.46,1.18,4.07,1.36,8.5,1.09,23.24-.27,17-.45,18.54-2.44,22.61-1.18,2.35-3.89,5.88-6.15,7.78-6.78,5.97-9.13,6.42-36.54,6.42h-24.24l-.27,25.96-.27,26.05-2.44,4.07c-3.17,5.43-6.6,8.5-12.03,11.03-4.07,1.81-6.15,2.08-21.43,2.35-10.4.18-18.81,0-21.71-.63-5.79-1.27-12.03-5.34-15.37-10.04-4.43-6.15-5.25-11.58-5.25-36.36v-22.43h-23.97c-27.04,0-30.57-.63-36.99-6.87-6.87-6.69-7.33-8.41-7.6-30.48-.27-16.28-.09-20.44,1.18-24.15,1.99-5.88,7.42-11.94,13.29-14.56,4.61-2.08,5.7-2.17,29.39-2.44l24.51-.27.36-24.6c.27-23.6.36-24.78,2.44-29.39,1.27-2.8,3.8-6.24,6.15-8.32,6.69-5.88,8.86-6.24,31.92-6.06,18.18.18,20.71.36,23.97,1.99Zm614.79,94.06c17.36,3.62,32.01,17.36,37.44,35,2.08,6.6,1.99,20.44-.09,26.95-7.05,21.43-26.41,36.18-47.57,36.18-11.49,0-24.87-5.34-33.37-13.2-21.16-19.53-21.8-51.28-1.54-71.36,7.42-7.33,13.11-10.67,22.43-13.11,7.96-2.08,14.47-2.17,22.7-.45Zm162.7,1.63c8.14,2.89,14.11,6.96,20.08,13.38,18.18,19.62,17.45,49.29-1.72,68.28-12.39,12.21-28.22,17.09-44.77,13.57-16.28-3.44-30.3-15.46-36.18-31.02-10.67-28.22,6.06-59.15,35.72-65.93,7.78-1.81,19.35-1.09,26.86,1.72Z"/>
    <path class="cls-1" d="m162.15,202.61c-6.78,4.16-6.51,3.17-7.05,36.9l-.45,30.3-30.3.45c-34,.54-33.01.27-37.08,7.42-1.81,3.26-1.9,4.43-1.63,22.25l.27,18.9,2.44,3.17c4.61,6.06,5.34,6.15,37.71,6.15h29.03v29.57c0,28.04.09,29.84,1.81,32.65,3.71,6.06,5.43,6.51,27.04,6.51,18.09,0,19.53-.09,22.43-1.9,1.63-1.09,3.8-3.44,4.79-5.43,1.72-3.26,1.81-5.43,1.81-32.47v-28.94h28.67c27.13,0,28.85-.09,32.47-1.9,2.35-1.09,4.79-3.26,5.97-5.15,1.9-3.17,2.08-4.52,2.35-20.44.36-19.08-.27-22.52-5.34-27.31l-2.71-2.62-30.66-.27-30.66-.27-.27-30.21c-.27-28.85-.36-30.3-2.17-32.65-4.52-6.15-4.97-6.24-25.96-6.51-18.63-.18-19.26-.18-22.52,1.81Z"/>
    <path class="cls-1" d="m420.53,343.88c-8.05,3.53-11.03,14.2-5.7,20.89,3.89,4.88,4.34,4.97,39.34,4.97,30.48,0,32.56-.09,35.27-1.81,3.8-2.26,5.97-6.69,6.06-11.94,0-3.44-.54-4.97-2.8-7.69-1.45-1.9-4.07-3.89-5.79-4.52-4.61-1.63-62.67-1.54-66.38.09Z"/>
    <path class="cls-1" d="m575.18,343.24c-5.7,1.45-9.5,6.87-9.5,13.57,0,4.88,1.99,8.59,5.97,11.21,2.44,1.63,4.79,1.72,35.27,1.72,32.47,0,32.65,0,35.72-2.08,4.25-2.8,6.42-7.33,5.97-12.48s-2.71-8.41-7.51-10.76c-3.44-1.72-5.25-1.81-33.91-1.72-16.64.09-31.02.36-32.01.54Z"/>
  </g>
  <circle class="cls-3" cx="970.11" cy="213.21" r="49.43"/>
  <circle class="cls-3" cx="813.23" cy="213.21" r="49.43"/>
  <g>
    <path class="cls-2" d="m55.17,644.18h32.3c6.95,8.95,10.43,18.39,10.43,28.33,0,11.55-4.08,21.25-12.23,29.11-8.15,7.85-18.18,11.78-30.09,11.78-15.47,0-28.6-6.09-39.39-18.28C5.4,682.93,0,668.09,0,650.59s5.49-32.17,16.48-43.83c10.99-11.66,24.72-17.5,41.19-17.5,5.62,0,11.85,1.18,18.69,3.55v35.17c-5.34-2.6-10.21-3.9-14.61-3.9-7.96,0-14.45,2.57-19.49,7.71-5.04,5.14-7.55,11.81-7.55,20.01s2.34,15.02,7.01,19.92c4.67,4.91,10.99,7.36,18.95,7.36,5.06,0,7.59-1.53,7.59-4.59,0-2.31-1.67-3.47-5.01-3.47h-8.1v-26.85Z"/>
    <path class="cls-2" d="m155.57,678.05v33.52c-2.56.46-4.9.69-7.01.69-12.52,0-22.95-4.27-31.3-12.82-8.35-8.55-12.52-19.26-12.52-32.14s4.21-23.16,12.64-31.88c8.43-8.72,18.68-13.08,30.75-13.08,13.46,0,24.08,4.09,31.84,12.26,7.76,8.17,11.64,19.33,11.64,33.48v42.36h-31.21v-40.02c0-4.56-1.07-8.2-3.21-10.92-2.14-2.71-5.02-4.07-8.64-4.07-3.28,0-6.12,1.24-8.51,3.72-2.39,2.48-3.59,5.43-3.59,8.84,0,3.58,1.08,6.53,3.25,8.84,2.17,2.31,4.92,3.47,8.26,3.47,2.73,0,5.26-.75,7.59-2.25Z"/>
    <path class="cls-2" d="m323.99,710.45h-31.21v-46.61c0-3.58-.36-6.06-1.08-7.45-.72-1.39-2.03-2.08-3.92-2.08-3.51,0-5.26,3.21-5.26,9.62v46.52h-31.21v-46.61c0-3.58-.38-6.06-1.13-7.45s-2.07-2.08-3.96-2.08c-3.45,0-5.17,3.21-5.17,9.62v46.52h-31.21v-53.19c0-9.7,3.14-17.95,9.43-24.73,6.29-6.79,13.91-10.18,22.87-10.18s17.53,4.04,24.87,12.13c8.18-8.09,16.36-12.13,24.54-12.13,10.4,0,18.75,3.93,25.04,11.78,4.95,6.12,7.43,15.04,7.43,26.77v49.55Z"/>
    <path class="cls-2" d="m424.06,672.5h-47.32c-.72-2.48-1.08-4.76-1.08-6.84,0-2.89.5-5.72,1.5-8.49h15.86c-1.11-6.41-4.59-9.62-10.43-9.62-3.9,0-7.07,1.72-9.51,5.15-2.45,3.44-3.67,7.84-3.67,13.21s1.18,10.14,3.55,13.6c2.36,3.47,5.47,5.2,9.31,5.2,3.12,0,6.12-1.62,9.01-4.85l17.78,22.18c-8.29,6.76-17.5,10.14-27.62,10.14-12.35,0-22.73-4.3-31.13-12.91-8.4-8.6-12.6-19.26-12.6-31.97s4.24-23.33,12.73-32.05c8.48-8.72,18.9-13.08,31.26-13.08s22.21,4.26,30.42,12.78c8.21,8.52,12.31,19.01,12.31,31.49,0,1.27-.11,3.29-.33,6.06Z"/>
    <path class="cls-2" d="m492.83,591.68v33.7c-2.45-.87-4.34-1.3-5.68-1.3-2.56,0-4.76.98-6.59,2.95-1.84,1.96-2.75,4.33-2.75,7.1,0,2.37,1,5.37,3,9.01l2.59,4.68c4.67,8.43,7.01,16.58,7.01,24.43,0,11.49-3.94,21.22-11.81,29.19-7.87,7.97-17.48,11.95-28.84,11.95-5.45,0-10.85-1.3-16.19-3.9v-34.22c3.23,2.14,6.09,3.21,8.6,3.21,2.95,0,5.41-.88,7.39-2.64,1.97-1.76,2.96-3.97,2.96-6.63,0-1.73-1.59-5.51-4.76-11.35-5.06-9.24-7.59-18.48-7.59-27.72,0-11.15,3.82-20.75,11.48-28.8,7.65-8.06,16.79-12.08,27.42-12.08,4.67,0,9.26.81,13.77,2.43Z"/>
    <path class="cls-2" d="m535.47,592.2v33.09h14.02v34.22h-14.02c0,6.87,1.04,11.61,3.13,14.21,2.09,2.6,5.91,3.9,11.48,3.9v34.04c-1.61.06-2.81.09-3.59.09-7.07,0-13.73-1.7-19.99-5.11-6.26-3.41-11.28-8.03-15.06-13.86-4.79-7.45-7.18-17.33-7.18-29.63v-70.95h31.21Z"/>
    <path class="cls-2" d="m604.33,622.26c11.8,0,21.91,4.4,30.34,13.21,8.43,8.81,12.64,19.36,12.64,31.66s-4.27,23.1-12.81,31.88c-8.54,8.78-18.85,13.17-30.92,13.17s-22.4-4.4-30.96-13.21c-8.57-8.81-12.85-19.42-12.85-31.84s4.28-23.29,12.85-31.92c8.57-8.63,19.14-12.95,31.71-12.95Zm-.83,31.97c-3.34,0-6.18,1.26-8.51,3.77s-3.51,5.59-3.51,9.23,1.18,6.64,3.55,9.18c2.36,2.54,5.19,3.81,8.47,3.81s6.19-1.27,8.55-3.81c2.36-2.54,3.55-5.6,3.55-9.18s-1.17-6.71-3.51-9.23-5.2-3.77-8.6-3.77Z"/>
    <path class="cls-2" d="m711.41,670.69l30.96-1.21c-.89,12.47-5.37,22.73-13.44,30.75-8.07,8.03-17.89,12.04-29.46,12.04-12.24,0-22.58-4.42-31.01-13.25-8.43-8.84-12.64-19.66-12.64-32.49s4.26-22.61,12.77-31.27c8.51-8.66,18.72-12.99,30.63-12.99,10.4,0,19.58,3.41,27.54,10.22,7.96,6.81,12.91,15.51,14.86,26.07l-31.63,1.21c-2.73-3.7-6.18-5.54-10.35-5.54-3.56,0-6.48,1.21-8.76,3.64-2.28,2.43-3.42,5.49-3.42,9.18s1.21,6.9,3.63,9.44c2.42,2.54,5.44,3.81,9.06,3.81,5.29,0,9.04-3.21,11.27-9.62Z"/>
    <path class="cls-2" d="m787.19,592.2v118.25h-31.21v-118.25h31.21Zm47.82,31.88l-15.27,31.45,22.7,54.92h-34.55l-19.53-56.39,14.19-29.97h32.47Z"/>
    <path class="cls-2" d="m871.23,671.64c5.45,0,10.14,2.05,14.06,6.15,3.92,4.1,5.88,8.98,5.88,14.64s-1.95,10.47-5.84,14.42c-3.89,3.96-8.6,5.93-14.1,5.93s-10.45-1.92-14.15-5.76c-3.7-3.84-5.55-8.73-5.55-14.68s1.92-10.67,5.76-14.68c3.84-4.01,8.48-6.02,13.94-6.02Z"/>
    <path class="cls-2" d="m952.27,622.26c11.8,0,21.91,4.4,30.34,13.21,8.43,8.81,12.64,19.36,12.64,31.66s-4.27,23.1-12.81,31.88c-8.54,8.78-18.85,13.17-30.92,13.17s-22.4-4.4-30.96-13.21c-8.57-8.81-12.85-19.42-12.85-31.84s4.28-23.29,12.85-31.92c8.57-8.63,19.14-12.95,31.71-12.95Zm-.83,31.97c-3.34,0-6.18,1.26-8.51,3.77s-3.51,5.59-3.51,9.23,1.18,6.64,3.55,9.18c2.36,2.54,5.19,3.81,8.47,3.81s6.19-1.27,8.55-3.81c2.36-2.54,3.55-5.6,3.55-9.18s-1.17-6.71-3.51-9.23c-2.34-2.51-5.2-3.77-8.6-3.77Z"/>
    <path class="cls-2" d="m1053.92,623.21v34.65c-2.17-1.27-4.15-1.91-5.93-1.91-5.68,0-8.51,4.5-8.51,13.51v40.97h-31.21v-47.21c0-12.47,3.28-22.42,9.85-29.84,6.56-7.42,15.33-11.13,26.29-11.13,2.45,0,5.62.32,9.51.95Z"/>
    <path class="cls-2" d="m1107.5,674.84v29.71c-4.51,1.73-8.82,2.6-12.94,2.6-10.07,0-18.6-3.96-25.58-11.87-6.98-7.91-10.47-17.59-10.47-29.02,0-12.36,4.2-22.78,12.6-31.27,8.4-8.49,18.72-12.73,30.96-12.73,6.51,0,12.74,1.36,18.69,4.07,5.95,2.72,10.63,6.35,14.02,10.92,5.68,7.57,8.51,18.54,8.51,32.92v28.41c0,15.42-4.21,27.94-12.64,37.55-8.43,9.62-19.4,14.42-32.92,14.42-4.12,0-9.32-1.07-15.61-3.21v-29.45c4.06,2.31,8.18,3.47,12.35,3.47,5.62,0,9.96-1.92,13.02-5.76,3.06-3.84,4.59-9.34,4.59-16.5v-32.49c0-9.07-3.53-13.6-10.6-13.6-3,0-5.63,1.2-7.89,3.6-2.25,2.4-3.38,5.15-3.38,8.27,0,3.29,1.07,6.04,3.21,8.23,2.14,2.2,4.8,3.29,7.97,3.29,2.11,0,4.14-.52,6.09-1.56Z"/>
  </g>
</svg>